# xmcd
#
# Track frame offsets: 
#        150
#        24455
#        45812
#        68004
#        90488
#        109769
#        141690
#        166928
#        186924
#        201548
#        215153
#        235104
#        253567
#        271265
#        295337
#        323310
#
# Disc length: 4643 seconds
#
# Revision: 1
# Processed by: cddbd v1.5.2PL0 Copyright (c) Steve Scherf et al.
# Submitted via: ExactAudioCopy v0.95b4
#
DISCID=e6122110
DTITLE=Ravin - Barons Court
DYEAR=2007
DGENRE=Lounge and Chill
TTITLE0=Mrs Daisy May
TTITLE1=La Pila
TTITLE2=Les DJinns (Trentemoller Remix)
TTITLE3=As The Day Breaks (Montreal Remix)
TTITLE4=Daydream
TTITLE5=Africa (Quicksound/Alain Vinet Remix)
TTITLE6=Roots 4 Acid
TTITLE7=Last Chance
TTITLE8=Machete
TTITLE9=Chambermaid Swing
TTITLE10=Choban In Space
TTITLE11=Amor Que Se Baila
TTITLE12=Gypsy Majik (Gypsy Lounge Vocal Remix)
TTITLE13=Loneliness (Chill House Mix)
TTITLE14=Indusufi
TTITLE15=Karma Busta Rhythm
EXTD=YEAR: 2007
EXTT0=
EXTT1=
EXTT2=
EXTT3=
EXTT4=
EXTT5=
EXTT6=
EXTT7=
EXTT8=
EXTT9=
EXTT10=
EXTT11=
EXTT12=
EXTT13=
EXTT14=
EXTT15=
PLAYORDER=
